<svg width="25" height="25" viewBox="0 0 25 25" fill="none" xmlns="http://www.w3.org/2000/svg">
<path d="M11.11 12.6195L3.94 7.52966C4.73 6.25966 6.15 5.40955 7.75 5.40955H17.75C19.35 5.40955 20.76 6.24965 21.56 7.51965L14.41 12.5995C13.4 13.2695 12.1 13.2695 11.11 12.6195ZM22.23 9.50964L15.55 14.2496C14.69 14.8196 13.71 15.0995 12.74 15.0995C11.78 15.0995 10.82 14.8196 9.97998 14.2596L3.27002 9.50964C3.26002 9.63964 3.25 9.77955 3.25 9.90955V15.9095C3.25 18.3895 5.27 20.4095 7.75 20.4095H17.75C20.23 20.4095 22.25 18.3895 22.25 15.9095V9.90955C22.25 9.77955 22.24 9.63964 22.23 9.50964Z" fill="#934C4C"/>
</svg>
