<svg width="47" height="47" viewBox="0 0 47 47" fill="none" xmlns="http://www.w3.org/2000/svg">
<path d="M26.5562 2.32233C25.7617 2.32233 25.1187 2.96537 25.1187 3.75983V6.26235C25.8106 6.46264 26.4709 6.69314 27.0353 6.96051C27.3669 7.11768 27.6851 7.27411 27.9937 7.43032V3.75983C27.9937 2.96537 27.3506 2.32233 26.5562 2.32233ZM27.9937 7.43032V16.2182C27.9937 16.3178 27.9771 16.4124 27.9656 16.5083C27.8209 17.6937 26.8216 18.614 25.5978 18.614C24.2744 18.614 23.202 17.5416 23.202 16.2182C23.202 15.0595 24.0252 14.0933 25.1187 13.871V6.26235C22.4689 5.49568 19.3383 5.20116 19.1946 5.19733C18.6694 5.17529 18.1675 5.4663 17.9068 5.92918L5.1771 28.5679C4.91739 29.0308 4.93456 29.6019 5.22015 30.0485C5.33706 30.2306 8.13465 34.5401 13.0777 37.3202C18.0227 40.1003 23.1595 40.2522 23.3761 40.257H23.4098C23.9282 40.257 24.407 39.9765 24.662 39.5233L37.3917 16.8845C37.6524 16.4226 37.6371 15.8534 37.3505 15.4058C37.2489 15.2487 35.1283 12.002 31.3553 9.32827C31.2432 9.24298 29.8538 8.37236 27.9937 7.43032ZM37.577 21.4459L26.7508 40.6987C26.5582 41.0408 26.3146 41.3411 26.0377 41.6028C31.9257 41.4897 36.5906 39.1644 36.7909 39.0628C37.2729 38.8184 37.577 38.3221 37.577 37.7807V21.4459ZM20.8155 21.9719C21.0915 21.9493 21.3759 22.0057 21.6353 22.1516C22.3263 22.5416 22.5719 23.4175 22.1838 24.1094L19.1684 29.472C18.9048 29.9406 18.4165 30.2057 17.9143 30.2057C17.6757 30.2057 17.4338 30.1459 17.2105 30.0204C16.5186 29.6313 16.273 28.7545 16.6621 28.0626L19.6775 22.7C19.9207 22.2676 20.3555 22.0096 20.8155 21.9719Z" fill="url(#paint0_linear_771_92)"/>
<defs>
<linearGradient id="paint0_linear_771_92" x1="4.99352" y1="2.32233" x2="47.674" y2="32.9074" gradientUnits="userSpaceOnUse">
<stop stop-color="#573E30"/>
<stop offset="1" stop-color="#FFBC6D"/>
</linearGradient>
</defs>
</svg>
