<svg width="43" height="31" viewBox="0 0 43 31" fill="none" xmlns="http://www.w3.org/2000/svg">
<path fill-rule="evenodd" clip-rule="evenodd" d="M29.207 8.18523C29.207 12.6888 25.6168 16.2999 21.1392 16.2999C16.6617 16.2999 13.0714 12.6888 13.0714 8.18523C13.0714 3.67995 16.6617 0.0722656 21.1392 0.0722656C25.6168 0.0722656 29.207 3.67995 29.207 8.18523ZM21.1392 30.7389C14.5628 30.7389 8.94741 29.6963 8.94741 25.5259C8.94741 21.3537 14.5267 20.2731 21.1392 20.2731C27.7156 20.2731 33.331 21.3157 33.331 25.4879C33.331 29.6583 27.7517 30.7389 21.1392 30.7389ZM32.6547 8.33154C32.6547 10.6273 31.9699 12.7661 30.7686 14.544C30.645 14.727 30.7549 14.9738 30.9728 15.0118C31.2732 15.0636 31.5838 15.0929 31.8996 15.1016C35.0488 15.1844 37.8753 13.1458 38.6562 10.0767C39.8129 5.5179 36.4166 1.42516 32.0918 1.42516C31.6215 1.42516 31.1719 1.47522 30.7343 1.56498C30.6742 1.57879 30.6107 1.60641 30.5764 1.65992C30.5352 1.72552 30.5661 1.81355 30.6073 1.87051C31.9064 3.70197 32.6547 5.93563 32.6547 8.33154ZM37.8702 18.3046C39.9863 18.7206 41.3781 19.5699 41.9547 20.8041C42.4421 21.8174 42.4421 22.9929 41.9547 24.0044C41.0726 25.9187 38.2289 26.5332 37.1237 26.692C36.8954 26.7266 36.7118 26.5281 36.7358 26.2985C37.3004 20.994 32.8092 18.479 31.6473 17.9007C31.5975 17.8748 31.5872 17.8351 31.5924 17.8109C31.5958 17.7937 31.6164 17.7661 31.6542 17.7609C34.1684 17.7143 36.8714 18.0595 37.8702 18.3046ZM10.5747 15.1015C10.8905 15.0928 11.1994 15.0652 11.5014 15.0117C11.7194 14.9737 11.8292 14.7269 11.7057 14.5439C10.5043 12.766 9.81957 10.6272 9.81957 8.33144C9.81957 5.93553 10.5678 3.70187 11.867 1.87042C11.9082 1.81345 11.9374 1.72542 11.8979 1.65982C11.8636 1.60804 11.7983 1.57869 11.74 1.56488C11.3006 1.47512 10.851 1.42507 10.3808 1.42507C6.05597 1.42507 2.65964 5.5178 3.81806 10.0766C4.59893 13.1457 7.42549 15.1843 10.5747 15.1015ZM10.8811 17.81C10.8862 17.8359 10.8759 17.8739 10.8279 17.9015C9.66428 18.4798 5.17302 20.9948 5.73765 26.2975C5.76167 26.5289 5.57976 26.7256 5.3515 26.6928C4.24628 26.534 1.40255 25.9195 0.520434 24.0052C0.0313204 22.9919 0.0313204 21.8182 0.520434 20.8049C1.09707 19.5707 2.48719 18.7214 4.60325 18.3037C5.60378 18.0603 8.30506 17.7151 10.821 17.7617C10.8588 17.7668 10.8776 17.7945 10.8811 17.81Z" fill="url(#paint0_linear_771_75)"/>
<defs>
<linearGradient id="paint0_linear_771_75" x1="0.153599" y1="0.0722656" x2="34.8268" y2="41.259" gradientUnits="userSpaceOnUse">
<stop stop-color="#573E30"/>
<stop offset="1" stop-color="#FFBC6D"/>
</linearGradient>
</defs>
</svg>
