<svg width="47" height="47" viewBox="0 0 47 47" fill="none" xmlns="http://www.w3.org/2000/svg">
<path d="M37.9725 8.49389C32.2991 2.83972 23.0991 2.83972 17.4641 8.49389C13.4967 12.4231 12.3083 18.0772 13.8417 23.0606L4.83332 32.0689C4.20082 32.7206 3.75999 34.0047 3.89415 34.9247L4.46915 39.1031C4.67999 40.4831 5.96415 41.7864 7.34415 41.9781L11.5225 42.5531C12.4425 42.6872 13.7267 42.2656 14.3783 41.5947L15.95 40.0231C16.3333 39.6589 16.3333 39.0456 15.95 38.6622L12.2317 34.9439C11.6758 34.3881 11.6758 33.4681 12.2317 32.9122C12.7875 32.3564 13.7075 32.3564 14.2633 32.9122L18.0008 36.6497C18.365 37.0139 18.9783 37.0139 19.3425 36.6497L23.4058 32.6056C28.37 34.1581 34.0241 32.9506 37.9725 29.0214C43.6266 23.3672 43.6266 14.1481 37.9725 8.49389ZM27.8333 23.4056C25.1883 23.4056 23.0416 21.2589 23.0416 18.6139C23.0416 15.9689 25.1883 13.8222 27.8333 13.8222C30.4783 13.8222 32.625 15.9689 32.625 18.6139C32.625 21.2589 30.4783 23.4056 27.8333 23.4056Z" fill="url(#paint0_linear_771_68)"/>
<defs>
<linearGradient id="paint0_linear_771_68" x1="3.87003" y1="4.25327" x2="47.3819" y2="41.861" gradientUnits="userSpaceOnUse">
<stop stop-color="#573E30"/>
<stop offset="1" stop-color="#FFBC6D"/>
</linearGradient>
</defs>
</svg>
