<svg width="47" height="47" viewBox="0 0 47 47" fill="none" xmlns="http://www.w3.org/2000/svg">
<path d="M42.4422 32.2204L36.7574 28.9716L41.1763 15.715C41.3603 15.164 41.1935 14.5554 40.7546 14.175C40.3157 13.7945 39.6909 13.7159 39.1695 13.9756L29.0859 19.0174L24.8626 8.03491C24.6489 7.48004 24.116 7.11395 23.5209 7.11395C22.9258 7.11395 22.3929 7.48004 22.1792 8.03491L17.9769 18.9618L8.87565 13.9977C8.35144 13.7102 7.70552 13.7792 7.25319 14.1673C6.7999 14.5545 6.63314 15.1822 6.83344 15.7437L11.236 28.0708L4.54973 32.2491C4.13094 32.5117 3.87506 32.9727 3.87506 33.4681C3.87506 33.9636 4.13094 34.4245 4.55069 34.6871L12.2174 39.4788C12.4454 39.6216 12.7099 39.6973 12.9792 39.6973H18.0392L19.2084 36.8223L16.504 35.1998C15.6482 34.6862 15.7498 33.4145 16.6765 33.0436L19.2084 32.0306L18.1849 28.9601C17.8782 28.0401 18.8816 27.2351 19.7134 27.7344L22.0834 29.1556L22.9957 25.9634C23.2842 24.9533 24.7159 24.9533 25.0044 25.9634L25.9167 29.1556L27.9848 27.7775C28.9019 27.1661 30.0184 28.2078 29.4712 29.1652L27.8334 32.0306L30.8186 33.0254C31.8392 33.3656 31.9389 34.7695 30.9767 35.2506L27.8334 36.8223L29.7501 39.6973H33.1042C33.3486 39.6973 33.5891 39.635 33.8029 39.5162L42.4279 34.7245C42.8811 34.4725 43.1639 33.9962 43.1667 33.4767C43.1696 32.9573 42.8927 32.4772 42.4422 32.2204Z" fill="url(#paint0_linear_771_86)"/>
<defs>
<linearGradient id="paint0_linear_771_86" x1="3.87506" y1="7.11395" x2="41.2313" y2="46.03" gradientUnits="userSpaceOnUse">
<stop stop-color="#573E30"/>
<stop offset="1" stop-color="#FFBC6D"/>
</linearGradient>
</defs>
</svg>
