<svg width="20" height="18" viewBox="0 0 20 18"  xmlns="http://www.w3.org/2000/svg">
<path d="M19.6825 3.39672L14.3175 1.49195C14.1905 1.44433 14.0635 1.4602 13.9524 1.50782C13.7778 1.58719 4.44444 4.8888 4.44444 4.8888C4.20635 4.96816 4.04762 5.19039 4.04762 5.44436V7.66659C4.04762 7.87295 4.1746 8.04755 4.36508 8.11104L5.60317 8.55549C5.92064 8.6666 6.2381 8.44438 6.2381 8.11104V6.25389C6.2381 5.99992 6.39683 5.77769 6.63492 5.69833L15.0635 2.77767L18.1111 3.85704L9.84127 6.76183C9.66667 6.82532 9.52381 6.99992 9.52381 7.20627V16.8571L0.952381 13.8254V4.17451L10.1587 0.920516C10.4127 0.825277 10.5397 0.555434 10.4444 0.317337C10.3492 0.063367 10.0794 -0.063618 9.84127 0.0316208L0.31746 3.39672C0.126984 3.46022 0 3.65069 0 3.84117V14.1587C0 14.3651 0.126984 14.5397 0.31746 14.6032L9.84127 17.9683C9.88889 17.9841 9.95238 18 10 18C10.0317 18 10.0476 18 10.0794 18H10.0952C10.1111 18 10.127 17.9841 10.1587 17.9841L19.6825 14.619C19.873 14.5555 20 14.3651 20 14.1746V3.85704C20 3.63482 19.873 3.46022 19.6825 3.39672Z"/>
</svg>
