<svg width="18" height="18" viewBox="0 0 18 18" xmlns="http://www.w3.org/2000/svg">
<path d="M16.0055 14.6303C15.6544 14.4488 15.0703 14.2877 14.3308 14.0835C14.0257 13.9991 13.7038 13.9105 13.385 13.8154C13.3515 13.7979 13.3163 13.7831 13.2794 13.7715L12.7063 13.5946C12.6062 13.5584 12.5082 13.5209 12.4237 13.4855L12.3866 13.4703C12.2831 13.4268 12.1834 13.3808 12.0973 13.3369C12.0871 13.3319 12.077 13.3267 12.067 13.3217C12.0306 13.3025 11.9947 13.2828 11.9597 13.2632C11.9577 13.2623 11.9394 13.2516 11.938 13.2508C11.9024 13.2298 11.868 13.2091 11.8506 13.198L11.8251 13.1814C11.7911 13.1591 11.7584 13.1371 11.7273 13.1133C11.7244 13.1111 11.7217 13.1094 11.7188 13.1074C11.6952 13.0891 11.6727 13.0699 11.6511 13.0511C11.649 13.049 11.6468 13.0468 11.6447 13.0453C11.6401 13.0409 11.6337 13.0354 11.6329 13.0346C11.6176 13.0206 11.6026 13.006 11.577 12.9791C11.5637 12.9643 11.5511 12.9488 11.5393 12.9335C11.5362 12.9296 11.5333 12.9255 11.5299 12.9215C11.5256 12.9152 11.5214 12.9082 11.5175 12.9015C11.5132 12.893 11.508 12.8823 11.5055 12.8777L10.9609 13.193L11.4788 12.8631L11.4972 12.8605C11.497 12.8583 11.4966 12.8554 11.496 12.8524L11.497 12.8515C11.4966 12.8493 11.4949 12.8417 11.4933 12.8349C11.4933 12.8341 11.4929 12.8332 11.4929 12.8323V12.4259C12.0873 11.8438 12.5252 11.0669 12.7566 10.1857C13.1945 9.89679 13.4903 9.21195 13.5217 8.32682C13.5362 7.91186 13.4872 7.52307 13.3817 7.1993C13.5561 6.73918 13.7069 6.21316 13.831 5.63151C13.8579 5.50497 13.8488 5.37276 13.8045 5.25233C13.738 5.07124 12.1445 0.818176 9.30863 0.818176C8.42644 0.818176 7.54487 1.23161 6.68651 2.04671C6.28653 2.16976 5.3304 2.54523 4.77983 3.44476C4.38276 4.09339 4.27546 4.8594 4.46085 5.72227C4.56876 6.22472 4.69304 6.61634 4.81753 6.96149C4.65017 7.32192 4.56586 7.8019 4.58451 8.32682C4.61558 9.21151 4.91136 9.89658 5.34966 10.1857C5.58041 11.0673 6.0185 11.8446 6.61339 12.4263V12.8303C6.61339 12.8303 6.61173 12.8428 6.61049 12.8517C6.61173 12.8423 6.61339 12.8334 6.61505 12.8258C6.61401 12.8304 6.61235 12.8463 6.61153 12.8504C6.61111 12.8513 6.6107 12.8526 6.61028 12.8539C6.60966 12.8578 6.60925 12.8607 6.60925 12.8607C6.60945 12.8581 6.61008 12.8561 6.61028 12.8539C6.60635 12.8629 6.59765 12.8821 6.59537 12.8879L6.59288 12.8943C6.58791 12.9037 6.58232 12.913 6.57611 12.922C6.57196 12.927 6.56761 12.9327 6.56533 12.9355C6.55456 12.9499 6.54255 12.9645 6.53509 12.973L6.97774 13.4321L6.51583 12.9931C6.50278 13.0066 6.4889 13.0208 6.47357 13.0343L6.45783 13.0487C6.43629 13.0679 6.41392 13.0867 6.3901 13.1046C6.38616 13.1076 6.38161 13.1114 6.37726 13.1148C6.34722 13.1375 6.31532 13.1591 6.27907 13.1829C6.27203 13.1873 6.26499 13.1914 6.25795 13.1962C6.23123 13.2137 6.20368 13.2303 6.16888 13.2503L6.14071 13.2665C6.11047 13.2835 6.07981 13.3005 6.03051 13.3256L6.01539 13.3341C5.92342 13.3806 5.82586 13.4253 5.71836 13.4705L4.82851 13.7833C4.4275 13.9049 4.01986 14.0096 3.62568 14.111C2.95622 14.2836 2.42741 14.4195 2.09081 14.5934C1.77659 14.7559 0.818176 15.2503 0.818176 16.5269C0.818176 16.8443 1.04437 17.1818 1.46361 17.1818L1.63615 17.1814C1.63967 17.1814 1.64319 17.1814 1.64671 17.1814H16.5604C16.9034 17.1814 17.1818 16.8886 17.1818 16.5269C17.1818 15.2396 16.3278 14.7972 16.0055 14.6303Z"/>
</svg>
