<svg width="24" height="24" viewBox="0 0 24 24" xmlns="http://www.w3.org/2000/svg">
<path fill-rule="evenodd" clip-rule="evenodd" d="M23.1773 18.4005C23.0955 19.3005 22.9591 19.9277 22.6318 20.5823C22.0045 21.8641 20.8864 22.7914 19.4955 23.1459C19.0045 23.2823 18.5409 23.3368 17.7773 23.3641C17.5045 23.3641 14.6136 23.3641 11.7227 23.3641C8.83182 23.3641 5.94091 23.3641 5.66818 23.3368C4.98637 23.3096 4.46818 23.2277 4.00455 23.1187C2.64091 22.7641 1.49546 21.8096 0.868183 20.555C0.54091 19.9005 0.404547 19.3005 0.322729 18.3459C0.295456 18.0732 0.295456 16.6823 0.295456 11.9096C0.295456 10.3005 0.295456 9.10047 0.295456 8.1732C0.295456 5.44593 0.322729 5.33683 0.404547 4.79138C0.568183 3.70047 1.00455 2.74593 1.74091 2.00956C2.15 1.60047 2.53182 1.30047 3.05 1.05502C3.70455 0.727744 4.33182 0.564108 5.31364 0.48229C5.58637 0.455017 6.97727 0.455017 11.75 0.455017H15.4864C18.2136 0.455017 18.3227 0.48229 18.8682 0.564108C19.9591 0.727744 20.8864 1.16411 21.65 1.90047C22.0864 2.30956 22.3591 2.71865 22.6318 3.23684C22.9591 3.89138 23.1227 4.51865 23.1773 5.41865C23.2045 5.60956 23.2045 8.74592 23.2045 11.9096C23.2045 15.0459 23.2045 18.1823 23.1773 18.4005ZM20.15 8.41865C20.0955 7.51865 19.9591 6.89138 19.7682 6.3732C19.55 5.82774 19.25 5.33683 18.7864 4.8732C18.3227 4.40956 17.8591 4.10956 17.2864 3.89138C16.7409 3.6732 16.1409 3.53683 15.2409 3.50956C14.3409 3.45502 14.0409 3.45502 11.75 3.45502C9.45909 3.45502 9.15909 3.45502 8.25909 3.50956C7.35909 3.56411 6.73182 3.70047 6.21364 3.89138C5.66818 4.10956 5.17727 4.40956 4.71364 4.8732C4.25 5.33683 3.95 5.82774 3.73182 6.3732C3.51364 6.91865 3.37727 7.51865 3.35 8.41865C3.29546 9.31865 3.29546 9.61865 3.29546 11.9096C3.29546 14.2005 3.29546 14.5005 3.35 15.4005C3.40455 16.3005 3.54091 16.9277 3.73182 17.4459C3.95 17.9914 4.25 18.4823 4.71364 18.9459C5.17727 19.4096 5.66818 19.7096 6.21364 19.9277C6.75909 20.1459 7.35909 20.2823 8.25909 20.3096C9.15909 20.3641 9.45909 20.3641 11.75 20.3641C14.0409 20.3641 14.3409 20.3641 15.2409 20.3096C16.1409 20.255 16.7682 20.1187 17.2864 19.9277C17.8318 19.7096 18.3227 19.4096 18.7864 18.9459C19.25 18.4823 19.55 17.9914 19.7682 17.4459C19.9864 16.9005 20.1227 16.3005 20.15 15.4005C20.2045 14.5005 20.2045 14.2005 20.2045 11.9096C20.2045 9.61865 20.2045 9.31865 20.15 8.41865ZM18.35 16.9005C18.1864 17.2823 18.0227 17.5823 17.7227 17.8823C17.4227 18.1823 17.15 18.3732 16.7409 18.5096C16.4409 18.6187 16.0045 18.755 15.1591 18.8096C14.2591 18.8368 13.9864 18.8641 11.75 18.8641C9.48637 18.8641 9.21364 18.8641 8.34091 18.8096C7.52273 18.7823 7.05909 18.6459 6.75909 18.5096C6.37727 18.3459 6.07727 18.1823 5.77727 17.8823C5.47727 17.5823 5.28637 17.3096 5.15 16.9005C5.04091 16.6005 4.90455 16.1641 4.85 15.3187C4.82273 14.4187 4.79546 14.1459 4.79546 11.9096C4.79546 9.6732 4.79546 9.3732 4.85 8.50047C4.87727 7.68229 5.01364 7.21865 5.15 6.91865C5.31364 6.53684 5.47727 6.23684 5.77727 5.93683C6.07727 5.63684 6.35 5.44593 6.75909 5.30956C7.05909 5.20047 7.49546 5.06411 8.34091 5.00956C9.13182 4.98229 9.43182 4.95502 10.9864 4.95502C11.2045 4.95502 11.45 4.95502 11.75 4.95502C14.0136 4.95502 14.2864 4.95502 15.1591 5.00956C15.9773 5.03684 16.4409 5.1732 16.7409 5.30956C17.1227 5.4732 17.4227 5.63684 17.7227 5.93683C18.0227 6.23684 18.2136 6.50956 18.35 6.91865C18.4591 7.21865 18.5955 7.65502 18.65 8.50047C18.6773 9.40047 18.7045 9.6732 18.7045 11.9096C18.7045 14.1732 18.7045 14.4459 18.65 15.3187C18.5955 16.1641 18.4591 16.6005 18.35 16.9005ZM11.75 7.5732C9.35 7.5732 7.41364 9.50956 7.41364 11.9096C7.41364 14.3096 9.35 16.2459 11.75 16.2459C14.15 16.2459 16.0864 14.3096 16.0864 11.9096C16.0864 9.50956 14.15 7.5732 11.75 7.5732ZM16.25 6.3732C15.6773 6.3732 15.2409 6.83683 15.2409 7.38229C15.2409 7.95502 15.7045 8.39138 16.25 8.39138C16.8227 8.39138 17.2591 7.92774 17.2591 7.38229C17.2864 6.83683 16.8227 6.3732 16.25 6.3732ZM11.75 14.7187C10.1955 14.7187 8.94091 13.4641 8.94091 11.9096C8.94091 10.355 10.1955 9.10047 11.75 9.10047C13.3045 9.10047 14.5591 10.355 14.5591 11.9096C14.5591 13.4641 13.3045 14.7187 11.75 14.7187Z" />
</svg>
