<svg width="18" height="20" viewBox="0 0 18 20" fill="none" xmlns="http://www.w3.org/2000/svg">
<path d="M16.8846 13.7264L15.8709 12.5685C15.1276 11.7053 14.6996 10.6316 14.6996 9.51583V7.36845C14.6996 4.82107 12.7848 2.67369 10.2167 2.14738V1.13685C10.2167 0.505265 9.67608 0 9.00028 0C8.32448 0 7.78383 0.505265 7.78383 1.13685V2.14738C5.21578 2.67369 3.30101 4.80002 3.30101 7.36845V9.51583C3.30101 10.6316 2.89553 11.7053 2.12962 12.5685L1.11591 13.7264C0.417582 14.5264 1.0258 15.7474 2.12962 15.7474H15.8484C16.9748 15.7474 17.583 14.5264 16.8846 13.7264Z" fill="#888C97"/>
<path d="M9.00032 20C10.6223 20 11.9288 18.7789 11.9288 17.2631H6.07184C6.07184 18.7789 7.3784 20 9.00032 20Z" fill="#888C97"/>
</svg>
