<svg width="20" height="18" viewBox="0 0 20 18" xmlns="http://www.w3.org/2000/svg">
<path d="M15.8332 10.7999C15.8332 11.426 16.4166 11.9738 17.0832 11.9738H19.9999V9.62595H17.0832C16.4166 9.62595 15.8332 10.1738 15.8332 10.7999Z"/>
<path d="M0 15.4957C0 16.8261 1.16667 18 2.58333 18H17.5833C18.8333 18 19.9167 16.9826 19.9167 15.8087V13.6174H17.0833C15.5 13.6174 14.1667 12.3652 14.1667 10.8783C14.1667 9.3913 15.5 8.13913 17.0833 8.13913H20V5.55652C20 4.53913 19.3333 3.75652 18.3333 3.44348V2.1913C18.3333 1.01739 17.25 0 16 0H2.66667C1.16667 0 0 1.09565 0 2.42609C0 2.58261 0 15.4174 0 15.4957ZM2.58333 1.56522H15.9167C16.25 1.56522 16.5833 1.87826 16.5833 2.1913V3.36522H2.58333C2.08333 3.36522 1.66667 2.97391 1.66667 2.50435C1.66667 1.95652 2.08333 1.56522 2.58333 1.56522Z"/>
</svg>
