<svg width="24" height="24" viewBox="0 0 24 24"  xmlns="http://www.w3.org/2000/svg">
<path d="M18.5861 0.455017H4.91393C2.36323 0.455017 0.295456 2.52279 0.295456 5.07349V18.7456C0.295456 21.2963 2.36323 23.3641 4.91393 23.3641H18.5861C21.1368 23.3641 23.2045 21.2963 23.2045 18.7456V5.07349C23.2045 2.52279 21.1368 0.455017 18.5861 0.455017ZM18.3009 10.4493H18.2987C18.1736 10.4616 18.0481 10.4679 17.9224 10.4685C17.2438 10.4686 16.5758 10.2997 15.9789 9.97705C15.3819 9.65441 14.8746 9.18819 14.5029 8.62046V14.9134C14.5029 17.4822 12.4205 19.5645 9.85185 19.5645C7.28319 19.5645 5.20075 17.4822 5.20075 14.9134C5.20075 12.3447 7.2831 10.2623 9.85185 10.2623C9.90041 10.2623 9.94834 10.2645 9.99617 10.2674C10.044 10.2704 10.0916 10.274 10.1393 10.2766V12.5693C10.0438 12.5579 9.94999 12.5405 9.85185 12.5405C8.5408 12.5405 7.47846 13.6035 7.47846 14.9139C7.47846 16.2243 8.54145 17.2872 9.85185 17.2872C11.1622 17.2872 12.3211 16.2542 12.3211 14.9429L12.344 4.25527H14.5368C14.7435 6.2216 16.329 7.75752 18.3009 7.90166V10.4493Z"/>
</svg>
