<svg width="24" height="24" viewBox="0 0 24 24" xmlns="http://www.w3.org/2000/svg">
<path fill-rule="evenodd" clip-rule="evenodd" d="M1.90387 2.06343C0.295456 3.67661 0.295456 6.2682 0.295456 11.4323V12.3868V12.4324C0.295442 17.5662 0.295435 20.152 1.90387 21.7557C3.51705 23.3641 6.10864 23.3641 11.2727 23.3641H12.2273C12.302 23.3641 12.3762 23.3641 12.4498 23.3641C17.4663 23.3645 20.011 23.3646 21.5961 21.7748C23.2045 20.1616 23.2045 17.57 23.2045 12.3868V11.4323V11.3867C23.2046 6.25291 23.2046 3.6671 21.5961 2.06343C19.983 0.455017 17.3914 0.455017 12.2273 0.455017H11.2727H11.2272C6.09335 0.455003 3.50754 0.454996 1.90387 2.06343ZM4.16142 7.41369C4.28551 13.3796 7.26369 16.9591 12.4851 16.9591L12.781 16.9687V13.561C13.7022 13.6763 14.5687 14.0614 15.2718 14.6676C15.9749 15.2739 16.4832 16.0745 16.7328 16.9687H19.4532C19.1736 15.9411 18.6794 14.9845 18.0032 14.1618C17.327 13.3392 16.4841 12.6691 15.5301 12.196C16.3858 11.6736 17.1243 10.98 17.6992 10.1587C18.2742 9.33737 18.6731 8.40607 18.871 7.42324H16.4082C15.8737 9.31324 14.2891 11.0314 12.781 11.1937V7.42324H10.3182V14.0191C8.79097 13.6182 6.86279 11.7855 6.77688 7.41369H4.16142Z"/>
</svg>
