<?xml version="1.0" encoding="utf-8"?><svg viewBox="0 0 47 47" xmlns="http://www.w3.org/2000/svg" xmlns:xlink="http://www.w3.org/1999/xlink"><style>:root>svg{display:none}:root>svg:target{display:block}</style><svg fill="none" viewBox="0 0 8 6" id="arrow" xmlns="http://www.w3.org/2000/svg"><path d="M4 6l3.464-6H.536L4 6z" fill="#6B6F80"/></svg><svg fill="none" viewBox="0 0 21 21" id="coop" xmlns="http://www.w3.org/2000/svg"><path d="M8.842.91h4a8 8 0 010 16v3.5c-5-2-12-5-12-11.5a8 8 0 018-8z" fill="#96AADD"/></svg><svg fill="none" viewBox="0 0 25 25" id="email" xmlns="http://www.w3.org/2000/svg"><path d="M11.11 12.62L3.94 7.53a4.496 4.496 0 013.81-2.12h10c1.6 0 3.01.84 3.81 2.11l-7.15 5.08c-1.01.67-2.31.67-3.3.02zm11.12-3.11l-6.68 4.74c-.86.57-1.84.85-2.81.85-.96 0-1.92-.28-2.76-.84L3.27 9.51c-.01.13-.02.27-.02.4v6c0 2.48 2.02 4.5 4.5 4.5h10c2.48 0 4.5-2.02 4.5-4.5v-6c0-.13-.01-.27-.02-.4z" fill="#934C4C"/></svg><svg viewBox="0 0 22 22" id="exit" xmlns="http://www.w3.org/2000/svg"><path d="M13.146 6.127c0 .41.147.821.462 1.124l2.08 2.14H8.04c-.862 0-1.534.712-1.534 1.577 0 .864.693 1.577 1.534 1.577h7.67l-2.08 2.14a1.61 1.61 0 000 2.247c.609.626 1.575.626 2.185 0l4.728-4.862a1.61 1.61 0 000-2.248l-4.75-4.818a1.505 1.505 0 00-2.185 0c-.294.324-.462.734-.462 1.123z"/><path d="M8.229 18.423c0-.886-.694-1.578-1.534-1.578H4.089V5.155h2.606c.861 0 1.534-.713 1.534-1.578C8.229 2.713 7.535 2 6.695 2H2.534C1.672 2 1 2.713 1 3.577v14.846C1 19.309 1.693 20 2.534 20h4.16c.862 0 1.535-.713 1.535-1.577z"/></svg><svg viewBox="0 0 20 20" id="facebook" xmlns="http://www.w3.org/2000/svg"><path d="M15.55 1.818H4.45c-1.477 0-2.632 1.155-2.632 2.567v11.166c0 1.412 1.155 2.63 2.631 2.63h6.16V11.83H8.493V9.39h2.118V7.53c0-2.118 1.283-3.273 3.144-3.273.898 0 1.668.064 1.925.128v2.182h-1.283c-1.027 0-1.22.513-1.22 1.22V9.39h2.439l-.32 2.439h-2.118v6.353h2.438c1.412 0 2.567-1.155 2.567-2.631V4.385c0-1.412-1.155-2.567-2.631-2.567z"/></svg><svg fill="none" viewBox="0 0 47 47" id="feature-1" xmlns="http://www.w3.org/2000/svg"><path d="M37.972 8.494C32.3 2.84 23.1 2.84 17.464 8.494c-3.967 3.93-5.156 9.583-3.622 14.567l-9.009 9.008c-.632.652-1.073 1.936-.939 2.856l.575 4.178c.211 1.38 1.495 2.683 2.875 2.875l4.179.575c.92.134 2.204-.287 2.855-.958l1.572-1.572a.949.949 0 000-1.36l-3.718-3.72a1.446 1.446 0 010-2.03 1.446 1.446 0 012.031 0l3.738 3.737a.96.96 0 001.341 0l4.064-4.044a14.518 14.518 0 0014.566-3.585c5.655-5.654 5.655-14.873 0-20.527zM27.833 23.406a4.793 4.793 0 01-4.791-4.792 4.793 4.793 0 014.791-4.792 4.793 4.793 0 014.792 4.792 4.793 4.793 0 01-4.792 4.792z" fill="url(#afpaint0_linear_771_68)"/><defs><linearGradient id="afpaint0_linear_771_68" x1="3.87" y1="4.253" x2="47.382" y2="41.861" gradientUnits="userSpaceOnUse"><stop stop-color="#573E30"/><stop offset="1" stop-color="#FFBC6D"/></linearGradient></defs></svg><svg fill="none" viewBox="0 0 43 31" id="feature-2" xmlns="http://www.w3.org/2000/svg"><path fill-rule="evenodd" clip-rule="evenodd" d="M29.207 8.185c0 4.504-3.59 8.115-8.068 8.115-4.477 0-8.068-3.611-8.068-8.115 0-4.505 3.59-8.113 8.068-8.113s8.068 3.608 8.068 8.113zM21.139 30.74c-6.576 0-12.192-1.043-12.192-5.213 0-4.172 5.58-5.253 12.192-5.253 6.577 0 12.192 1.043 12.192 5.215 0 4.17-5.58 5.25-12.192 5.25zM32.655 8.332a11.05 11.05 0 01-1.886 6.212.304.304 0 00.204.468c.3.052.61.08.927.09 3.149.082 5.975-1.956 6.756-5.025 1.157-4.56-2.24-8.652-6.564-8.652-.47 0-.92.05-1.358.14-.06.014-.123.041-.158.095-.04.066-.01.154.031.21a11.13 11.13 0 012.048 6.462zm5.215 9.973c2.116.416 3.508 1.265 4.085 2.5a3.685 3.685 0 010 3.2c-.882 1.914-3.726 2.528-4.831 2.687-.229.035-.412-.164-.388-.393.564-5.305-3.927-7.82-5.089-8.398-.05-.026-.06-.066-.055-.09.004-.017.024-.045.062-.05 2.514-.047 5.217.299 6.216.544zM10.575 15.1a6.3 6.3 0 00.926-.09.304.304 0 00.205-.467A11.049 11.049 0 019.82 8.33c0-2.395.748-4.63 2.047-6.46.041-.058.07-.146.03-.211-.033-.052-.099-.081-.157-.095-.44-.09-.889-.14-1.36-.14-4.324 0-7.72 4.093-6.562 8.652.78 3.069 3.607 5.107 6.757 5.024zm.306 2.709c.005.026-.005.064-.053.091-1.164.579-5.655 3.094-5.09 8.396.024.232-.158.429-.387.396-1.105-.159-3.948-.774-4.83-2.688a3.673 3.673 0 010-3.2c.576-1.234 1.966-2.084 4.082-2.501 1-.244 3.702-.589 6.218-.542a.07.07 0 01.06.048z" fill="url(#agpaint0_linear_771_75)"/><defs><linearGradient id="agpaint0_linear_771_75" x1=".154" y1=".072" x2="34.827" y2="41.259" gradientUnits="userSpaceOnUse"><stop stop-color="#573E30"/><stop offset="1" stop-color="#FFBC6D"/></linearGradient></defs></svg><svg fill="none" viewBox="0 0 47 47" id="feature-3" xmlns="http://www.w3.org/2000/svg"><path d="M42.442 32.22l-5.685-3.248 4.42-13.257a1.437 1.437 0 00-2.008-1.74l-10.083 5.042-4.223-10.982a1.437 1.437 0 00-2.684 0l-4.202 10.927-9.101-4.964a1.438 1.438 0 00-2.042 1.746l4.402 12.327-6.686 4.178a1.44 1.44 0 000 2.438l7.667 4.792c.228.143.493.218.762.218h5.06l1.17-2.875-2.705-1.622c-.856-.514-.754-1.786.172-2.156l2.532-1.013-1.023-3.07c-.307-.92.697-1.726 1.528-1.227l2.37 1.422.913-3.193c.288-1.01 1.72-1.01 2.008 0l.913 3.193 2.068-1.378c.917-.612 2.033.43 1.486 1.387l-1.638 2.866 2.986.994c1.02.34 1.12 1.745.158 2.226l-3.144 1.571 1.917 2.875h3.354c.245 0 .485-.062.699-.18l8.625-4.793a1.436 1.436 0 00.014-2.504z" fill="url(#ahpaint0_linear_771_86)"/><defs><linearGradient id="ahpaint0_linear_771_86" x1="3.875" y1="7.114" x2="41.231" y2="46.03" gradientUnits="userSpaceOnUse"><stop stop-color="#573E30"/><stop offset="1" stop-color="#FFBC6D"/></linearGradient></defs></svg><svg fill="none" viewBox="0 0 47 47" id="feature-4" xmlns="http://www.w3.org/2000/svg"><path d="M26.556 2.322c-.794 0-1.437.643-1.437 1.438v2.502c.692.2 1.352.431 1.916.699.332.157.65.313.959.47V3.76c0-.795-.643-1.438-1.438-1.438zm1.438 5.108v8.788c0 .1-.017.194-.028.29a2.388 2.388 0 01-2.368 2.106 2.395 2.395 0 01-.48-4.743V6.262c-2.65-.766-5.78-1.06-5.923-1.065a1.428 1.428 0 00-1.288.732L5.177 28.568a1.443 1.443 0 00.043 1.48c.117.183 2.915 4.492 7.858 7.272 4.945 2.78 10.082 2.932 10.298 2.937h.034c.518 0 .997-.28 1.252-.734l12.73-22.639a1.435 1.435 0 00-.042-1.478c-.101-.157-2.222-3.404-5.995-6.078-.112-.085-1.501-.956-3.361-1.898zm9.583 14.016L26.751 40.699a3.832 3.832 0 01-.713.904c5.888-.113 10.553-2.439 10.753-2.54.482-.245.786-.74.786-1.282V21.446zm-16.761.526a1.44 1.44 0 011.368 2.137l-3.016 5.363a1.439 1.439 0 11-2.506-1.41l3.015-5.362c.244-.432.678-.69 1.139-.728z" fill="url(#aipaint0_linear_771_92)"/><defs><linearGradient id="aipaint0_linear_771_92" x1="4.994" y1="2.322" x2="47.674" y2="32.907" gradientUnits="userSpaceOnUse"><stop stop-color="#573E30"/><stop offset="1" stop-color="#FFBC6D"/></linearGradient></defs></svg><svg fill="none" viewBox="0 0 36 36" id="gift" xmlns="http://www.w3.org/2000/svg"><path d="M34.355 17.283v-3.685c.004-.044.004-.09.004-.134a2.894 2.894 0 00-.868-2.025c-.543-.532-1.282-.813-2.049-.843-.122-.004-.244 0-.366 0h-2.724c.22-.409.397-.85.508-1.292.15-.58.227-1.202.189-1.8-.077-1.169-.447-2.344-1.189-3.284-.22-.278-.435-.552-.693-.797a7.843 7.843 0 00-.854-.676c-.488-.345-1.038-.586-1.606-.783-1.164-.405-2.509-.422-3.697-.12a6.44 6.44 0 00-3.018 1.737 5.95 5.95 0 00-1.972-1.366c-.348-.144-.69-.285-1.056-.375a8.76 8.76 0 00-1.14-.177c-.626-.064-1.267.006-1.88.127a6.314 6.314 0 00-1.701.616A6.24 6.24 0 008.814 3.44a6.11 6.11 0 00-1.076 1.372 5.924 5.924 0 00-.645 1.633c-.268 1.259-.164 2.534.355 3.719.067.147.136.291.21.432H4.524c-.53.02-1.073.16-1.512.451-.593.395-.98.89-1.227 1.533-.129.338-.15.703-.15 1.061v4.67A2.85 2.85 0 003.7 21.057v8.946c0 .496-.003.991 0 1.486.004.305.042.63.157.918.174.431.39.833.753 1.15.369.322.735.526 1.205.68.314.104.659.124.99.124h21.89c.504 0 1.03.027 1.515-.147.453-.164.867-.375 1.205-.72.342-.344.547-.706.715-1.151.1-.271.129-.576.132-.86V21.06c.153-.046.303-.107.467-.174.484-.204.85-.582 1.15-.99.31-.422.442-.944.474-1.453.024-.385.003-.776.003-1.161zM19.742 7.788v-.084c.003-.097.006-.194.014-.291.045-.238.114-.472.198-.703.112-.221.24-.435.387-.636.164-.18.338-.351.526-.505a5.17 5.17 0 01.665-.375c.238-.084.481-.148.729-.191.261-.02.526-.02.787 0 .248.043.495.11.732.19h.003c.23.108.453.232.662.372.189.158.366.325.527.506.142.197.271.408.38.625.09.235.156.48.205.727.021.247.021.498 0 .746a4.108 4.108 0 01-.202.706c-.111.225-.24.435-.39.64a4.733 4.733 0 01-.533.512 4.73 4.73 0 01-.652.365h-.007c-.233.08-.474.143-.718.19-.1.007-.198.014-.3.017-.233.007-.466.003-.696.003h-2.321l.003-2.814zm-3.39 17.621v-5.653c.01-.077.017-.154.017-.23v-5.583H19.62v5.432a1.983 1.983 0 00-.007.143v5.74c0 .08 0 .165.003.248h-3.265v-.097zM10.427 7.406c.045-.238.115-.472.198-.703.112-.217.237-.428.383-.63.164-.183.345-.357.537-.514.206-.138.422-.258.645-.362.247-.087.502-.154.763-.2.258-.02.519-.02.777 0 .247.043.491.11.732.19.233.107.456.234.669.375.188.154.362.325.522.505.147.204.279.419.39.643.084.22.15.448.196.68.01.133.017.264.017.4V10.6h-2.174c-.255 0-.509.003-.763 0-.13-.003-.258-.007-.387-.017a4.806 4.806 0 01-.718-.187 4.702 4.702 0 01-.672-.378 4.246 4.246 0 01-.52-.502 4.874 4.874 0 01-.39-.64v-.003-.003a4.511 4.511 0 01-.202-.703 3.69 3.69 0 01-.003-.76zM5.776 17.852c-.181 0-.363.006-.547.01a.68.68 0 00-.119.02v-3.846-.093h7.767v3.909H5.776zm22.938 13.17H9.417c-.746 0-1.491.003-2.237.003.004-.217.01-.431.01-.646v-9.184h5.684v4.495c0 .154-.004.305.01.459.063.71.331 1.385.878 1.887.547.502 1.23.77 1.983.814.624.037 1.258.003 1.882.003h2.383c.83 0 1.603-.261 2.202-.82.589-.545.885-1.322.885-2.098v-4.743h5.694v8.91c0 .307.003.612.003.92h-.08zm2.042-13.163c-.108-.004-.21-.004-.314-.004h-7.341v-3.91h7.108c.22 0 .442-.01.665-.01v3.93c-.038-.003-.08-.003-.118-.006z" fill="#FF94C1"/></svg><svg viewBox="0 0 18 18" id="icon-battles" xmlns="http://www.w3.org/2000/svg"><path d="M11.194 14.364h-.079s-.106-.013-.397.15l-.145.083-.145-.027-1.441 1.49-1.427-1.477-.12.027-.145-.082c-.277-.164-.396-.15-.396-.15H6.82c-.04.52-.093.889-.238 1.12L9 18l2.432-2.515c-.145-.246-.212-.615-.238-1.12zM8.974 0L6.516 2.542l.304 1.613 2.154-2.228 2.18 2.255.304-1.613L8.974 0zm5.128 5.303l-.304 1.613 1.995 2.063-.634.657-.159.833c.12.069.357.205.846.397L17.67 8.98l-3.568-3.677zM3.106 8.009l1.07-1.12-.304-1.613L.291 8.993l1.824 1.886c.502-.191.753-.328.859-.396l-.146-.793-.674-.697.952-.984z"/><path d="M5.736 14.378l.172.943.198-.04c.119-.028.198-.438.238-1.23 0 0 .026-.056.119-.097.079-.027.317-.068.317-.068.185-.04.423.027.713.205l.265-.055-.013-.068c-.08-.383-.12-.656-.133-.71.344-.288.436-.506.397-.739 0 0 .106-.027.198-.04l-.053-.301c-.145-.164-.33-.301-.33-.301l-1.89-9.936.119-.793-.027-.137c-.171.041-.277-.054-.317-.287l-.132.028c-.436.095-.423.068-.727.082-.78.41-1.163.724-1.15.874.027.246.053.438.093.656l.859 4.552c.119.628-.198 1.038-1.15 1.421-.264.096-.436.178-.423.273l.37 1.969c.04.246-.793.642-2.524 1.216-.344.068-.555-.055-.555-.055l-.37.082.568 2.98.265-.055c.092.069.092.15.119.26l.066.328c.343.027.33.082.674 0 .462-.11 2.696-1.64 2.775-1.668a.719.719 0 01.264-.054c.423-.028.899.423 1.005.765zm-1.48-3.881c-.423-.069-.661-.26-.714-.547l-.238-1.271.304-.137.33-.068c.45-.014.7.164.78.546l.066.329c.053.273.093.478-.198.587 0 0-.172.041-.344.041-.264.014-.264 0-.568-.068l.04.15c.264.274.938.246 1.163.205 0 0-.08.123-.251.178-.146.04-.37.055-.37.055zM13.269 13.613a.794.794 0 01.264.054c.08.028 2.313 1.572 2.775 1.668.344.082.33.027.674 0l.066-.328c.014-.096.014-.178.12-.26l.264.055.568-2.98-.383-.082s-.198.137-.555.055c-1.732-.56-2.578-.97-2.525-1.216l.37-1.969c.014-.095-.158-.164-.422-.273-.952-.369-1.27-.793-1.15-1.421l.859-4.552c.04-.218.066-.41.092-.656.014-.15-.37-.464-1.15-.874-.317-.014-.303.013-.726-.069l-.133-.027c-.04.219-.145.314-.317.287l-.026.137.119.792-1.89 9.91s-.172.136-.33.3l-.053.314c.092.014.198.041.198.041-.04.233.053.451.396.738-.013.055-.066.315-.132.711l-.013.068.264.055c.291-.178.529-.246.714-.205 0 0 .251.027.317.068.093.041.12.096.12.096.039.793.118 1.203.237 1.23l.198.041.172-.943c.093-.342.582-.793 1.018-.765zm.449-3.116s-.225-.014-.357-.055c-.172-.055-.25-.178-.25-.178.224.041.898.069 1.162-.205l.04-.15c-.304.068-.304.082-.569.068-.171-.013-.343-.04-.343-.04-.29-.11-.251-.315-.198-.588l.066-.329c.066-.369.33-.546.78-.546l.33.068.304.137-.238 1.27c-.066.288-.304.48-.727.548z"/><path d="M2.643 8.479l.463-.48c-.212.11-.41.247-.463.48zM14.815 7.982l.529.547c-.027-.287-.291-.451-.53-.547z"/></svg><svg viewBox="0 0 20 18" id="icon-cases" xmlns="http://www.w3.org/2000/svg"><path d="M19.683 3.397l-5.365-1.905a.482.482 0 00-.366.016c-.174.08-9.508 3.38-9.508 3.38a.582.582 0 00-.396.556v2.223c0 .206.127.38.317.444l1.238.444a.469.469 0 00.635-.444V6.254c0-.254.159-.476.397-.556l8.428-2.92 3.048 1.079-8.27 2.905a.484.484 0 00-.317.444v9.651L.952 13.825v-9.65L10.16.92a.465.465 0 00.285-.604.465.465 0 00-.603-.285L.317 3.397A.477.477 0 000 3.84V14.16c0 .206.127.38.317.444l9.524 3.365A.566.566 0 0010 18h.095c.016 0 .032-.016.064-.016l9.524-3.365a.477.477 0 00.317-.444V3.857a.468.468 0 00-.317-.46z"/></svg><svg viewBox="0 0 16 18" id="icon-contacts" xmlns="http://www.w3.org/2000/svg"><path d="M13.493 0H2.507C1.13 0 0 1.118 0 2.482v13.036C0 16.882 1.13 18 2.507 18h10.986C14.87 18 16 16.882 16 15.518V2.482C16 1.118 14.87 0 13.493 0zm-2.201 13.775H4.708a.845.845 0 01-.842-.834c0-.455.383-.834.842-.834h6.565c.46 0 .842.38.842.834a.829.829 0 01-.823.834zm0-3.941H4.708A.845.845 0 013.866 9c0-.455.383-.834.842-.834h6.565c.46 0 .842.38.842.834a.829.829 0 01-.823.834zm0-3.96H4.708a.845.845 0 01-.842-.834c0-.455.383-.834.842-.834h6.565c.46 0 .842.38.842.834a.829.829 0 01-.823.834z"/></svg><svg viewBox="0 0 18 18" id="icon-faq" xmlns="http://www.w3.org/2000/svg"><path d="M16.003 14.624a9.232 9.232 0 01-1.291 1.31l-2.832-2.828c.51-.352.948-.796 1.292-1.31l2.831 2.828zM13.294 16.909a9.008 9.008 0 01-8.597 0l3.032-3.029a5.188 5.188 0 002.529 0l3.036 3.028zM6.107 13.106l-2.828 2.823a9.2 9.2 0 01-1.292-1.305l2.832-2.828a5.05 5.05 0 001.288 1.31zM18 8.988a8.936 8.936 0 01-1.051 4.212l-3.053-3.052c.09-.38.134-.77.134-1.16.001-.426-.053-.85-.161-1.262l3.036-3.032A8.944 8.944 0 0118 8.988zM15.948 3.278L13.12 6.102c-.355-.505-.8-.94-1.311-1.286l2.832-2.828c.477.386.915.818 1.307 1.29zM13.207 1.044l-3.052 3.052a5.095 5.095 0 00-2.32 0L4.78 1.048a8.993 8.993 0 018.427 0v-.004zM6.182 4.82A5.093 5.093 0 004.87 6.106L2.043 3.282c.392-.473.83-.906 1.307-1.294L6.182 4.82zM3.964 8.988c-.001.39.044.778.134 1.156l-3.056 3.052a8.98 8.98 0 01.044-8.479L4.122 7.75a5.105 5.105 0 00-.158 1.24zM12.353 8.988v.264a3.37 3.37 0 01-3.084 3.075h-.535a3.275 3.275 0 01-1.402-.437 3.321 3.321 0 01-1.28-1.317 3.245 3.245 0 01-.394-1.314v-.27c-.001-.139.008-.277.027-.414a3.369 3.369 0 011.737-2.537 3.312 3.312 0 011.182-.373 2.938 2.938 0 01.81 0c.415.046.817.173 1.182.374.552.295 1.01.737 1.324 1.278.226.388.37.82.421 1.266.014.135.018.27.012.405z"/></svg><svg viewBox="0 0 18 16" id="icon-online" xmlns="http://www.w3.org/2000/svg"><path d="M12.227 0H5.773C2.598 0 0 2.989 0 6.641c0 3.17 1.942 5.827 4.54 6.491l3.62-4.83A1.07 1.07 0 019 7.879c.315 0 .63.151.84.423l3.62 4.83c2.598-.664 4.54-3.32 4.54-6.49C18 2.988 15.402 0 12.227 0z"/><path d="M9 9.328L3.962 16h10.076L9 9.328z"/></svg><svg viewBox="0 0 18 18" id="icon-upgrades" xmlns="http://www.w3.org/2000/svg"><path fill-rule="evenodd" clip-rule="evenodd" d="M7.098 13.012h3.822V5.62h2.403L8.99 0 4.677 5.62l2.42.038v7.354zm4.9-3.644v.916c1.853-.978 4.104-3.012 4.995-5.48.89-2.462-1.38-3.623-1.38-3.623C16.801 4.217 12 9.368 12 9.368zm5.635-3.83c-1.958 3.795-5.634 5.323-5.634 5.323v.853c3.46-1.293 5.171-2.993 5.768-4.337.594-1.341-.134-1.84-.134-1.84zm-5.634 6.679v.663c2.93-.437 4.432-1.579 5.21-2.373.775-.796.229-1.642.229-1.642-2.595 2.935-5.44 3.352-5.44 3.352zM9.114 18c5.559 0 7.708-6.087 7.708-6.087-2.649 1.547-4.823 1.547-4.823 1.547C11.1 16.36 9.114 18 9.114 18zm1.824-4.51H7.091s.897 3.146 1.846 3.146c.94 0 2.001-3.145 2.001-3.145zm-4.937-3.206v-.916S1.2 4.217 2.39 1.181c0 0-2.269 1.16-1.38 3.624.888 2.462 3.135 4.5 4.991 5.479zm0 1.434v-.853S2.325 9.337.367 5.54c0 0-.728.5-.134 1.844.594 1.34 2.305 3.04 5.768 4.334zm0 .499S3.157 11.8.566 8.865c0 0-.55.846.228 1.642.774.794 2.28 1.932 5.21 2.373v-.663h-.003zm0 1.243s-2.174 0-4.824-1.547c0 0 2.147 6.087 7.709 6.087 0 0-1.987-1.64-2.885-4.54z"/></svg><svg viewBox="0 0 18 18" id="icon-user" xmlns="http://www.w3.org/2000/svg"><path d="M16.006 14.63c-.352-.181-.936-.342-1.675-.546-.305-.085-.627-.173-.946-.269a.647.647 0 00-.106-.043l-.573-.177a6.27 6.27 0 01-.282-.11l-.037-.015a4.418 4.418 0 01-.29-.133l-.03-.015a4.874 4.874 0 01-.107-.059l-.022-.012a3.623 3.623 0 01-.087-.053l-.026-.017a1.64 1.64 0 01-.098-.068l-.008-.006a1.554 1.554 0 01-.068-.056l-.006-.006-.012-.01a1.064 1.064 0 01-.094-.101l-.01-.012a.335.335 0 01-.011-.02l-.013-.024-.544.315.518-.33.018-.002a.08.08 0 00-.001-.009h.001a.54.54 0 00-.004-.017V12.426c.594-.582 1.032-1.36 1.264-2.24.438-.29.733-.974.765-1.86a3.318 3.318 0 00-.14-1.127c.174-.46.325-.986.449-1.567a.687.687 0 00-.026-.38c-.067-.18-1.66-4.434-4.496-4.434-.883 0-1.764.414-2.622 1.229-.4.123-1.357.498-1.907 1.398-.397.648-.505 1.414-.32 2.277.109.503.233.894.358 1.24-.168.36-.252.84-.233 1.365.03.885.326 1.57.765 1.859.23.881.669 1.659 1.263 2.24v.404l-.003.022a.317.317 0 01.005-.026l-.003.024-.002.004v0l-.015.034-.002.006a.276.276 0 01-.017.028l-.01.013a.68.68 0 01-.03.038l.442.46-.462-.44a.73.73 0 01-.042.041l-.016.015c-.022.019-.044.038-.068.056l-.013.01-.098.068-.021.013a1.753 1.753 0 01-.09.054l-.027.017c-.03.017-.061.034-.11.059l-.016.008c-.092.047-.19.091-.297.136l-.89.313c-.4.122-.808.227-1.202.328-.67.173-1.199.308-1.535.482-.314.163-1.273.657-1.273 1.934 0 .317.226.655.646.655H16.56c.343 0 .622-.293.622-.655 0-1.287-.854-1.73-1.176-1.897z"/></svg><svg viewBox="0 0 20 20" id="instagram" xmlns="http://www.w3.org/2000/svg"><path fill-rule="evenodd" clip-rule="evenodd" d="M18.162 14.636c-.058.643-.155 1.091-.39 1.559a3.413 3.413 0 01-2.24 1.831c-.35.097-.681.136-1.227.156H9.981c-2.065 0-4.13 0-4.325-.02a6.08 6.08 0 01-1.188-.155 3.516 3.516 0 01-2.24-1.832c-.235-.467-.332-.896-.39-1.578-.02-.194-.02-1.188-.02-4.597V7.331c0-1.948.02-2.026.078-2.415.117-.78.429-1.461.955-1.987.292-.293.565-.507.935-.682.467-.234.915-.35 1.617-.41.194-.019 1.188-.019 4.597-.019h2.669c1.948 0 2.026.02 2.415.078.78.117 1.442.429 1.987.955.312.292.507.584.702.954.233.468.35.916.39 1.559.019.136.019 2.376.019 4.636 0 2.24 0 4.48-.02 4.636zM16 7.506c-.039-.642-.136-1.09-.273-1.46-.156-.39-.37-.74-.701-1.072a2.921 2.921 0 00-1.072-.701c-.39-.156-.818-.254-1.46-.273-.643-.039-.858-.039-2.494-.039-1.636 0-1.85 0-2.494.039-.642.039-1.09.136-1.46.273-.39.156-.74.37-1.072.701a3.09 3.09 0 00-.701 1.071c-.156.39-.254.819-.273 1.461-.039.643-.039.858-.039 2.494 0 1.636 0 1.85.039 2.493.039.643.136 1.091.273 1.461.156.39.37.74.701 1.072.331.331.682.545 1.071.701.39.156.819.253 1.461.273.643.039.858.039 2.494.039 1.636 0 1.85 0 2.493-.039.643-.039 1.091-.136 1.461-.273.39-.156.74-.37 1.072-.701.331-.331.545-.682.701-1.072.156-.39.253-.818.273-1.46.039-.643.039-.858.039-2.494 0-1.636 0-1.85-.039-2.494zm-1.286 6.059c-.117.273-.234.487-.448.701a1.67 1.67 0 01-.701.448c-.214.078-.526.176-1.13.215-.643.019-.838.038-2.435.038-1.617 0-1.812 0-2.435-.038-.584-.02-.916-.117-1.13-.215-.273-.117-.487-.234-.701-.448a1.67 1.67 0 01-.448-.701c-.078-.214-.176-.526-.215-1.13-.02-.643-.039-.838-.039-2.435s0-1.812.04-2.435c.019-.584.116-.916.214-1.13.117-.273.233-.487.448-.701.214-.215.409-.35.701-.448.214-.078.526-.176 1.13-.215.565-.02.78-.039 1.89-.039H10c1.617 0 1.812 0 2.435.04.585.019.916.116 1.13.214.273.117.487.233.701.448.214.214.35.409.448.701.078.214.176.526.215 1.13.019.643.038.838.038 2.435 0 1.617 0 1.812-.038 2.435-.04.604-.137.916-.215 1.13zM10 6.903A3.093 3.093 0 006.903 10 3.093 3.093 0 0010 13.097 3.093 3.093 0 0013.097 10 3.093 3.093 0 0010 6.903zm3.214-.858a.72.72 0 00-.72.721c0 .41.33.721.72.721a.72.72 0 00.721-.72c.02-.39-.312-.722-.72-.722zM10 12.007A2.004 2.004 0 017.994 10c0-1.11.896-2.006 2.006-2.006 1.11 0 2.007.896 2.007 2.006 0 1.11-.897 2.007-2.007 2.007z"/></svg><svg viewBox="0 0 24 24" id="instagram-2" xmlns="http://www.w3.org/2000/svg"><path fill-rule="evenodd" clip-rule="evenodd" d="M23.177 18.4c-.081.9-.218 1.528-.545 2.182a4.778 4.778 0 01-3.137 2.564c-.49.136-.954.19-1.718.218h-6.054c-2.891 0-5.782 0-6.055-.027a8.521 8.521 0 01-1.663-.218 4.922 4.922 0 01-3.137-2.564c-.327-.654-.463-1.255-.545-2.21-.028-.272-.028-1.663-.028-6.435V8.173c0-2.727.028-2.836.11-3.382.163-1.09.6-2.045 1.336-2.781.409-.41.79-.71 1.309-.955.655-.327 1.282-.49 2.264-.573C5.586.455 6.977.455 11.75.455h3.736c2.728 0 2.837.027 3.382.11 1.091.163 2.018.6 2.782 1.335.436.41.71.819.982 1.337.327.654.49 1.282.545 2.182.027.19.027 3.327.027 6.49 0 3.137 0 6.273-.027 6.492zM20.15 8.42c-.054-.9-.19-1.528-.382-2.046a4.327 4.327 0 00-.982-1.5 4.09 4.09 0 00-1.5-.982c-.545-.218-1.145-.354-2.045-.381-.9-.055-1.2-.055-3.491-.055-2.29 0-2.59 0-3.49.055-.9.054-1.528.19-2.046.381a4.326 4.326 0 00-1.5.982 4.326 4.326 0 00-.982 1.5c-.218.546-.355 1.146-.382 2.046-.055.9-.055 1.2-.055 3.49 0 2.291 0 2.591.055 3.491.055.9.19 1.528.382 2.046.218.545.518 1.036.982 1.5.463.464.954.764 1.5.982.545.218 1.145.354 2.045.382.9.054 1.2.054 3.491.054 2.29 0 2.59 0 3.49-.054.9-.055 1.528-.191 2.046-.382a4.325 4.325 0 001.5-.982c.464-.464.764-.955.982-1.5.218-.546.355-1.146.382-2.046.055-.9.055-1.2.055-3.49 0-2.291 0-2.591-.055-3.491zm-1.8 8.482c-.164.381-.327.681-.627.981-.3.3-.573.491-.982.628-.3.109-.736.245-1.582.3-.9.027-1.173.054-3.409.054-2.264 0-2.536 0-3.41-.054-.817-.028-1.28-.164-1.58-.3-.383-.164-.683-.328-.983-.628-.3-.3-.49-.572-.627-.982-.11-.3-.245-.736-.3-1.581-.027-.9-.055-1.173-.055-3.41 0-2.236 0-2.536.055-3.409.027-.818.164-1.281.3-1.581.164-.382.327-.682.627-.982.3-.3.573-.491.982-.627.3-.11.736-.246 1.582-.3.79-.028 1.09-.055 2.645-.055h.764c2.264 0 2.536 0 3.41.055.817.027 1.28.163 1.58.3.383.163.683.327.983.627.3.3.49.573.627.982.11.3.245.736.3 1.581.027.9.055 1.173.055 3.41 0 2.263 0 2.536-.055 3.409-.054.845-.19 1.281-.3 1.582zm-6.6-9.328a4.33 4.33 0 00-4.336 4.337 4.33 4.33 0 004.336 4.336 4.33 4.33 0 004.336-4.336 4.33 4.33 0 00-4.336-4.337zm4.5-1.2c-.573 0-1.01.464-1.01 1.01 0 .572.464 1.008 1.01 1.008.573 0 1.01-.463 1.01-1.009.026-.545-.437-1.009-1.01-1.009zm-4.5 8.346a2.805 2.805 0 01-2.81-2.81A2.805 2.805 0 0111.75 9.1a2.805 2.805 0 012.81 2.81 2.805 2.805 0 01-2.81 2.809z"/></svg><svg fill="none" viewBox="0 0 18 20" id="notification" xmlns="http://www.w3.org/2000/svg"><path d="M16.885 13.726l-1.014-1.158c-.743-.863-1.171-1.936-1.171-3.052V7.368c0-2.547-1.915-4.694-4.483-5.22V1.136C10.217.505 9.677 0 9 0c-.676 0-1.216.505-1.216 1.137v1.01C5.216 2.674 3.3 4.8 3.3 7.368v2.148c0 1.116-.405 2.19-1.171 3.053l-1.014 1.157c-.698.8-.09 2.021 1.014 2.021h13.718c1.127 0 1.735-1.22 1.037-2.02zM9 20c1.622 0 2.929-1.221 2.929-2.737H6.072C6.072 18.78 7.378 20 9 20z" fill="#888C97"/></svg><svg viewBox="0 0 20 18" id="refill" xmlns="http://www.w3.org/2000/svg"><path d="M15.833 10.8c0 .626.584 1.174 1.25 1.174H20V9.626h-2.917c-.666 0-1.25.548-1.25 1.174z"/><path d="M0 15.496C0 16.826 1.167 18 2.583 18h15c1.25 0 2.334-1.017 2.334-2.191v-2.192h-2.834c-1.583 0-2.916-1.252-2.916-2.739 0-1.487 1.333-2.739 2.916-2.739H20V5.557c0-1.018-.667-1.8-1.667-2.114V2.191C18.333 1.017 17.25 0 16 0H2.667C1.167 0 0 1.096 0 2.426v13.07zm2.583-13.93h13.334c.333 0 .666.312.666.625v1.174h-14c-.5 0-.916-.391-.916-.86 0-.548.416-.94.916-.94z"/></svg><svg fill="none" viewBox="0 0 18 18" id="sound" xmlns="http://www.w3.org/2000/svg"><path d="M2.864 12.884h2.209c.167 0 .328.06.452.17l3.265 2.848a1.392 1.392 0 001.452.21c.241-.106.446-.28.589-.498.143-.219.217-.474.214-.734V2.853a1.318 1.318 0 00-.214-.734 1.353 1.353 0 00-.59-.498 1.362 1.362 0 00-1.455.214L5.523 4.68a.689.689 0 01-.45.168h-2.21c-.542 0-1.062.212-1.446.589-.383.377-.599.888-.599 1.42v4.018c0 .533.216 1.044.6 1.42.383.378.903.59 1.446.59zM12.771 9.493a.679.679 0 00-.332.395.658.658 0 00.05.51.69.69 0 00.403.324.703.703 0 00.519-.045 2.13 2.13 0 00.765-.77 2.083 2.083 0 000-2.081 2.13 2.13 0 00-.765-.77.693.693 0 00-.52-.05.68.68 0 00-.403.327.66.66 0 00-.05.511c.054.17.173.312.333.396a.787.787 0 01.32.626.772.772 0 01-.32.627z" fill="#808699"/><path d="M14.777 4.633a.69.69 0 00-.93.27.662.662 0 00.285.91c.532.316.968.766 1.265 1.302.296.537.442 1.141.421 1.751.02.61-.125 1.215-.421 1.752a3.463 3.463 0 01-1.265 1.301.673.673 0 00-.33.397.66.66 0 00.457.83.705.705 0 00.518-.047 4.827 4.827 0 001.789-1.795 4.717 4.717 0 00.616-2.438 4.718 4.718 0 00-.616-2.437 4.827 4.827 0 00-1.789-1.796z" fill="#808699"/></svg><svg viewBox="0 0 20 20" id="telegram" xmlns="http://www.w3.org/2000/svg"><path fill-rule="evenodd" clip-rule="evenodd" d="M18.882 2.867a.617.617 0 00-.603-.103c-3.18 1.127-12.96 4.652-16.958 6.07a.607.607 0 00-.304.225.59.59 0 00.024.71c.08.1.192.173.318.206 1.793.512 4.146 1.23 4.146 1.23s1.1 3.187 1.674 4.812a.643.643 0 00.454.418.682.682 0 00.617-.15c.918-.836 2.344-2.127 2.344-2.127s2.706 1.906 4.242 2.953a.927.927 0 00.836.108.87.87 0 00.355-.237.844.844 0 00.195-.373c.66-2.972 2.258-10.489 2.856-13.193a.543.543 0 00-.196-.55zm-3.119 2.732L8.05 12.28l-.282 2.55-1.272-4.028 9.01-5.526a.223.223 0 01.287.047.197.197 0 01-.029.277z"/></svg><svg viewBox="0 0 20 20" id="tiktok" xmlns="http://www.w3.org/2000/svg"><path d="M18.174 5.867a4.18 4.18 0 01-4.187-4.145h-2.703v7.386l-.003 4.046a2.447 2.447 0 01-2.59 2.442 2.437 2.437 0 01-1.119-.343 2.447 2.447 0 01-1.196-2.062A2.449 2.449 0 019.6 10.833V8.088a5.32 5.32 0 00-.78-.058 5.184 5.184 0 00-3.895 1.742 5.071 5.071 0 00-1.28 3.06 5.065 5.065 0 001.51 3.945 5.184 5.184 0 003.666 1.5 5.167 5.167 0 003.666-1.5 5.061 5.061 0 001.517-3.602l-.014-6.042a6.834 6.834 0 004.191 1.424V5.867c.002.001-.006.001-.007.001z"/></svg><svg viewBox="0 0 24 24" id="tiktok-2" xmlns="http://www.w3.org/2000/svg"><path d="M18.586.455H4.914A4.618 4.618 0 00.295 5.073v13.673a4.619 4.619 0 004.619 4.618h13.672a4.618 4.618 0 004.619-4.618V5.073A4.618 4.618 0 0018.585.455zm-.285 9.994h-.002a4.086 4.086 0 01-3.796-1.829v6.293a4.651 4.651 0 11-4.651-4.65c.048 0 .096.002.144.004l.143.01v2.292c-.095-.011-.189-.029-.287-.029a2.373 2.373 0 000 4.747c1.31 0 2.47-1.033 2.47-2.344l.022-10.688h2.193A4.084 4.084 0 0018.3 7.902v2.547z"/></svg><svg viewBox="0 0 20 20" id="twitter" xmlns="http://www.w3.org/2000/svg"><path d="M19.09 4.45a7.866 7.866 0 01-2.147.579A3.66 3.66 0 0018.583 3a7.52 7.52 0 01-2.364.889 3.762 3.762 0 00-2.722-1.162c-2.064 0-3.725 1.65-3.725 3.671 0 .291.025.571.086.837a10.606 10.606 0 01-7.683-3.839 3.652 3.652 0 00-.51 1.855 3.66 3.66 0 001.655 3.05 3.725 3.725 0 01-1.684-.451v.04c0 1.783 1.292 3.265 2.987 3.606-.304.082-.634.12-.978.12-.238 0-.48-.013-.705-.062a3.756 3.756 0 003.483 2.557A7.564 7.564 0 011.8 15.676c-.306 0-.599-.013-.892-.05a10.614 10.614 0 005.718 1.647c6.86 0 10.61-5.595 10.61-10.444 0-.162-.006-.319-.014-.474a7.375 7.375 0 001.868-1.906z"/></svg><svg viewBox="0 0 20 20" id="vk" xmlns="http://www.w3.org/2000/svg"><path fill-rule="evenodd" clip-rule="evenodd" d="M17.21 11.476c.686.6 1.338 1.232 1.955 1.894.271.301.507.628.704.976.269.505.03 1.059-.44 1.086H16.51a2.334 2.334 0 01-1.018-.154 2.222 2.222 0 01-.836-.573c-.403-.395-.776-.813-1.164-1.226a2.668 2.668 0 00-.523-.445.635.635 0 00-.803-.004.573.573 0 00-.164.227c-.206.41-.312.858-.312 1.312-.029.663-.235.836-.93.863a7.672 7.672 0 01-4.163-.859 9.188 9.188 0 01-2.807-2.529A33.7 33.7 0 01.1 5.704c-.234-.5-.062-.767.513-.781a85.24 85.24 0 012.85 0 .873.873 0 01.495.164.8.8 0 01.297.409 16.813 16.813 0 001.935 3.45c.193.297.44.558.728.773a.468.468 0 00.447.112.448.448 0 00.204-.121.414.414 0 00.106-.205c.093-.231.15-.475.168-.722.087-.845.071-1.697-.048-2.538a1.028 1.028 0 00-.29-.639 1.132 1.132 0 00-.644-.329c-.278-.05-.24-.15-.1-.304.098-.136.231-.247.387-.322.156-.074.329-.11.503-.105h3.297c.517.095.632.323.7.822l.004 3.524c-.005.196.1.768.465.9a.669.669 0 00.38-.058.623.623 0 00.276-.256 10.9 10.9 0 001.859-2.747c.22-.432.412-.886.599-1.336a.674.674 0 01.28-.374.738.738 0 01.467-.116l3.157.01c.095-.003.19.002.283.013.537.086.68.309.518.813a7.574 7.574 0 01-1.265 2.102c-.527.704-1.093 1.385-1.615 2.094-.479.65-.445.972.154 1.54z"/></svg><svg viewBox="0 0 24 24" id="vk-2" xmlns="http://www.w3.org/2000/svg"><path fill-rule="evenodd" clip-rule="evenodd" d="M1.904 2.063C.295 3.677.295 6.268.295 11.433v.999c0 5.134 0 7.72 1.609 9.324 1.613 1.608 4.205 1.608 9.369 1.608h1.177c5.016 0 7.561 0 9.146-1.59 1.608-1.612 1.608-4.204 1.608-9.387v-1c0-5.134 0-7.72-1.608-9.324C19.983.455 17.391.455 12.227.455h-1c-5.134 0-7.72 0-9.323 1.608zm2.257 5.35c.125 5.967 3.103 9.546 8.324 9.546l.296.01V13.56a4.71 4.71 0 013.952 3.408h2.72a7.537 7.537 0 00-3.923-4.773 7.275 7.275 0 003.341-4.773h-2.463c-.534 1.89-2.119 3.608-3.627 3.77v-3.77h-2.463v6.596c-1.527-.4-3.455-2.233-3.541-6.605H4.16z"/></svg><svg viewBox="0 0 20 20" id="youtube" xmlns="http://www.w3.org/2000/svg"><path d="M18.716 5.628a2.277 2.277 0 00-1.602-1.602C15.69 3.636 10 3.636 10 3.636s-5.691 0-7.114.375a2.324 2.324 0 00-1.602 1.617C.909 7.05.909 10 .909 10s0 2.965.375 4.372c.21.779.823 1.393 1.602 1.602 1.438.39 7.114.39 7.114.39s5.691 0 7.114-.375a2.278 2.278 0 001.602-1.602c.375-1.422.375-4.372.375-4.372s.015-2.965-.375-4.387zM8.188 12.725v-5.45L12.92 10l-4.732 2.725z"/></svg></svg>